<svg xmlns="http://www.w3.org/2000/svg" height="512pt" version="1.1" viewBox="0 0 512 512" width="512pt">
<g id="surface1">
<path d="M 512 256 C 512 397.386719 397.386719 512 256 512 C 114.613281 512 0 397.386719 0 256 C 0 114.613281 114.613281 0 256 0 C 397.386719 0 512 114.613281 512 256 Z M 512 256 " style=" stroke:none;fill-rule:nonzero;fill:rgb(57.647059%,19.215686%,69.803922%);fill-opacity:1;" />
<path d="M 512 256 C 512 224.480469 506.289062 194.300781 495.871094 166.414062 L 423.789062 94.316406 C 420.441406 90.742188 415.6875 88.5 410.433594 88.5 L 101.566406 88.5 C 91.484375 88.5 83.238281 96.746094 83.238281 106.824219 L 83.238281 345.878906 C 83.238281 351.03125 85.394531 355.695312 88.847656 359.03125 C 88.847656 359.03125 187.773438 458.164062 241.691406 511.597656 C 246.429688 511.855469 251.195312 512 256 512 C 397.386719 512 512 397.386719 512 256 Z M 512 256 " style=" stroke:none;fill-rule:nonzero;fill:rgb(36.078431%,10.588235%,43.529412%);fill-opacity:1;" />
<path d="M 202.191406 358.355469 L 309.808594 358.355469 L 309.808594 425.917969 L 202.191406 425.917969 Z M 202.191406 358.355469 " style=" stroke:none;fill-rule:nonzero;fill:rgb(99.607843%,75.294118%,0%);fill-opacity:1;" />
<path d="M 256 358.351562 L 309.808594 358.351562 L 309.808594 425.921875 L 256 425.921875 Z M 256 358.351562 " style=" stroke:none;fill-rule:nonzero;fill:rgb(100%,66.666667%,12.54902%);fill-opacity:1;" />
<path d="M 410.433594 364.203125 L 101.566406 364.203125 C 91.484375 364.203125 83.238281 355.960938 83.238281 345.878906 L 83.238281 106.824219 C 83.238281 96.746094 91.484375 88.5 101.566406 88.5 L 410.433594 88.5 C 420.515625 88.5 428.761719 96.746094 428.761719 106.824219 L 428.761719 345.878906 C 428.761719 355.957031 420.515625 364.203125 410.433594 364.203125 Z M 410.433594 364.203125 " style=" stroke:none;fill-rule:nonzero;fill:rgb(100%,90.196078%,43.921569%);fill-opacity:1;" />
<path d="M 428.761719 106.828125 L 428.761719 345.878906 C 428.761719 355.960938 420.511719 364.199219 410.441406 364.199219 L 256 364.199219 L 256 88.5 L 410.441406 88.5 C 420.511719 88.5 428.761719 96.75 428.761719 106.828125 Z M 428.761719 106.828125 " style=" stroke:none;fill-rule:nonzero;fill:rgb(100%,81.176471%,0%);fill-opacity:1;" />
<path d="M 270.332031 338.832031 C 270.332031 346.75 263.914062 353.164062 256 353.164062 C 248.085938 353.164062 241.667969 346.75 241.667969 338.832031 C 241.667969 330.917969 248.085938 324.5 256 324.5 C 263.914062 324.5 270.332031 330.917969 270.332031 338.832031 Z M 270.332031 338.832031 " style=" stroke:none;fill-rule:nonzero;fill:rgb(99.607843%,75.294118%,0%);fill-opacity:1;" />
<path d="M 270.328125 338.828125 C 270.328125 346.75 263.921875 353.171875 256 353.171875 L 256 324.5 C 263.921875 324.5 270.328125 330.921875 270.328125 338.828125 Z M 270.328125 338.828125 " style=" stroke:none;fill-rule:nonzero;fill:rgb(100%,66.666667%,12.54902%);fill-opacity:1;" />
<path d="M 83.238281 118.761719 L 428.761719 118.761719 L 428.761719 312.214844 L 83.238281 312.214844 Z M 83.238281 118.761719 " style=" stroke:none;fill-rule:nonzero;fill:rgb(100%,100%,100%);fill-opacity:1;" />
<path d="M 256 118.761719 L 428.761719 118.761719 L 428.761719 312.210938 L 256 312.210938 Z M 256 118.761719 " style=" stroke:none;fill-rule:nonzero;fill:rgb(100%,96.078431%,79.607843%);fill-opacity:1;" />
<path d="M 178.507812 269.855469 L 178.507812 246.804688 L 134 246.804688 L 134 232.59375 L 183.582031 168.660156 L 194.457031 168.660156 L 194.457031 232.304688 L 207.214844 232.304688 L 207.214844 246.804688 L 194.457031 246.804688 L 194.457031 269.855469 Z M 150.238281 232.304688 L 180.246094 232.304688 L 180.246094 193.015625 Z M 150.238281 232.304688 " style=" stroke:none;fill-rule:nonzero;fill:rgb(100%,38.823529%,24.313725%);fill-opacity:1;" />
<path d="M 294.203125 208.964844 C 294.203125 215.34375 293.261719 221.214844 291.375 226.578125 C 289.488281 231.941406 286.878906 236.582031 283.546875 240.496094 C 280.210938 244.410156 276.296875 247.457031 271.804688 249.632812 C 267.308594 251.804688 262.402344 252.894531 257.089844 252.894531 C 251.769531 252.894531 246.84375 251.804688 242.300781 249.632812 C 237.757812 247.457031 233.84375 244.410156 230.558594 240.496094 C 227.269531 236.582031 224.683594 231.941406 222.800781 226.578125 C 220.914062 221.214844 219.972656 215.34375 219.972656 208.964844 C 219.972656 202.585938 220.914062 196.714844 222.800781 191.347656 C 224.683594 185.984375 227.269531 181.347656 230.558594 177.429688 C 233.839844 173.515625 237.757812 170.449219 242.300781 168.226562 C 246.84375 166.003906 251.773438 164.890625 257.089844 164.890625 C 262.402344 164.890625 267.308594 166.003906 271.804688 168.226562 C 276.296875 170.449219 280.210938 173.515625 283.546875 177.429688 C 286.878906 181.347656 289.488281 185.984375 291.375 191.347656 C 293.257812 196.714844 294.203125 202.585938 294.203125 208.964844 Z M 277.964844 208.964844 C 277.964844 204.613281 277.457031 200.652344 276.441406 197.074219 C 275.425781 193.5 273.976562 190.40625 272.09375 187.796875 C 270.207031 185.1875 267.984375 183.183594 265.425781 181.78125 C 262.863281 180.378906 260.082031 179.679688 257.085938 179.679688 C 253.898438 179.679688 251.019531 180.382812 248.460938 181.78125 C 245.898438 183.183594 243.675781 185.1875 241.792969 187.796875 C 239.90625 190.40625 238.457031 193.5 237.441406 197.074219 C 236.425781 200.652344 235.921875 204.613281 235.921875 208.964844 C 235.921875 213.3125 236.425781 217.277344 237.441406 220.851562 C 238.457031 224.429688 239.90625 227.496094 241.792969 230.058594 C 243.675781 232.621094 245.898438 234.601562 248.460938 236.003906 C 251.019531 237.402344 253.898438 238.105469 257.085938 238.105469 C 260.082031 238.105469 262.859375 237.40625 265.425781 236.003906 C 267.984375 234.601562 270.207031 232.621094 272.09375 230.058594 C 273.976562 227.496094 275.425781 224.429688 276.441406 220.851562 C 277.457031 217.277344 277.964844 213.3125 277.964844 208.964844 Z M 277.964844 208.964844 " style=" stroke:none;fill-rule:nonzero;fill:rgb(100%,38.823529%,24.313725%);fill-opacity:1;" />
<path d="M 271.800781 249.628906 C 276.296875 247.457031 280.210938 244.410156 283.546875 240.496094 C 286.878906 236.582031 289.488281 231.941406 291.375 226.578125 C 293.261719 221.214844 294.203125 215.34375 294.203125 208.964844 C 294.203125 202.585938 293.261719 196.710938 291.375 191.347656 C 289.488281 185.984375 286.878906 181.34375 283.546875 177.429688 C 280.210938 173.515625 276.296875 170.449219 271.800781 168.222656 C 267.308594 166.003906 262.402344 164.890625 257.085938 164.890625 C 256.722656 164.890625 256.363281 164.90625 256 164.917969 L 256 179.707031 C 256.359375 179.6875 256.71875 179.679688 257.085938 179.679688 C 260.082031 179.679688 262.863281 180.382812 265.425781 181.78125 C 267.984375 183.183594 270.207031 185.1875 272.09375 187.796875 C 273.976562 190.40625 275.425781 193.5 276.441406 197.074219 C 277.457031 200.652344 277.964844 204.613281 277.964844 208.964844 C 277.964844 213.3125 277.457031 217.277344 276.441406 220.851562 C 275.425781 224.429688 273.976562 227.5 272.09375 230.058594 C 270.207031 232.621094 267.984375 234.601562 265.425781 236.003906 C 262.863281 237.40625 260.082031 238.105469 257.085938 238.105469 C 256.71875 238.105469 256.359375 238.09375 256 238.074219 L 256 252.867188 C 256.363281 252.875 256.722656 252.894531 257.085938 252.894531 C 262.402344 252.894531 267.308594 251.804688 271.800781 249.628906 Z M 271.800781 249.628906 " style=" stroke:none;fill-rule:nonzero;fill:rgb(93.333333%,14.901961%,0%);fill-opacity:1;" />
<path d="M 349.292969 269.855469 L 349.292969 246.804688 L 304.785156 246.804688 L 304.785156 232.59375 L 354.367188 168.660156 L 365.242188 168.660156 L 365.242188 232.304688 L 378 232.304688 L 378 246.804688 L 365.242188 246.804688 L 365.242188 269.855469 Z M 321.023438 232.304688 L 351.035156 232.304688 L 351.035156 193.015625 Z M 321.023438 232.304688 " style=" stroke:none;fill-rule:nonzero;fill:rgb(93.333333%,14.901961%,0%);fill-opacity:1;" />
<path d="M 181.222656 417.472656 L 330.777344 417.472656 L 330.777344 450.550781 L 181.222656 450.550781 Z M 181.222656 417.472656 " style=" stroke:none;fill-rule:nonzero;fill:rgb(100%,90.196078%,43.921569%);fill-opacity:1;" />
<path d="M 256 417.46875 L 330.78125 417.46875 L 330.78125 450.550781 L 256 450.550781 Z M 256 417.46875 " style=" stroke:none;fill-rule:nonzero;fill:rgb(100%,81.176471%,0%);fill-opacity:1;" />
</g>
</svg>