<?xml version="1.0" encoding="iso-8859-1"?>
<!-- Generator: Adobe Illustrator 19.0.0, SVG Export Plug-In . SVG Version: 6.00 Build 0)  -->
<svg version="1.1" id="Capa_1" xmlns="http://www.w3.org/2000/svg" xmlns:xlink="http://www.w3.org/1999/xlink" x="0px" y="0px"
	 viewBox="0 0 512.004 512.004" style="enable-background:new 0 0 512.004 512.004;" xml:space="preserve">
<g>
	<path style="fill:#00D8CE;" d="M181.767,124.237h148.468c30.315,0,55.117,24.802,55.117,55.116v148.469
		c0,30.314-24.802,55.117-55.117,55.117H181.767c-30.314,0-55.117-24.803-55.117-55.117V179.353
		C126.65,149.039,151.452,124.237,181.767,124.237L181.767,124.237z M181.767,156.155c-12.76,0-23.199,10.439-23.199,23.198v148.469
		c0,12.759,10.439,23.199,23.199,23.199h148.468c12.759,0,23.199-10.44,23.199-23.199V179.353c0-12.759-10.439-23.198-23.199-23.198
		H181.767z"/>
	<path style="fill:#FD4A4A;" d="M181.767,156.155h148.468c12.759,0,23.199,10.439,23.199,23.198v148.469
		c0,12.759-10.439,23.199-23.199,23.199H181.767c-12.76,0-23.199-10.44-23.199-23.199V179.353
		C158.568,166.594,169.007,156.155,181.767,156.155L181.767,156.155z M258.888,194.111v56.691h56.691v-56.691H258.888z"/>
	<g>
		<path style="fill:#FFCE34;" d="M211.646,89.12c14.411,0,26.165-11.753,26.165-26.165c0-14.411-11.754-26.164-26.165-26.164
			c-14.411,0-26.165,11.754-26.165,26.164C185.481,77.367,197.235,89.12,211.646,89.12z"/>
		<path style="fill:#FFCE34;" d="M309.764,65.862c14.411,0,26.165-11.753,26.165-26.165c0-14.411-11.754-26.165-26.165-26.165
			s-26.165,11.754-26.165,26.165C283.6,54.109,295.353,65.862,309.764,65.862z"/>
	</g>
	<circle style="fill:#00D8CE;" cx="36.16" cy="218.091" r="26.16"/>
	<g>
		<circle style="fill:#FFCE34;" cx="55.38" cy="313.311" r="26.16"/>
		<circle style="fill:#FFCE34;" cx="155.68" cy="472.311" r="26.16"/>
		<circle style="fill:#FFCE34;" cx="475.84" cy="344.921" r="26.16"/>
		<circle style="fill:#FFCE34;" cx="475.84" cy="261.701" r="26.16"/>
	</g>
	<g>
		<circle style="fill:#FF8346;" cx="475.84" cy="173.761" r="26.16"/>
		<circle style="fill:#FF8346;" cx="256" cy="456.451" r="26.16"/>
	</g>
	<circle style="fill:#00D8CE;" cx="351.92" cy="472.311" r="26.16"/>
	<rect x="258.89" y="194.111" style="fill:#FFCE34;" width="56.69" height="56.691"/>
</g>
<path d="M395.352,271.69l45.737,0.011c4.35,15.092,18.275,26.167,34.749,26.167c19.941,0,36.165-16.224,36.165-36.165
	s-16.224-36.165-36.165-36.165c-16.471,0-30.396,11.073-34.747,26.162l-45.738-0.011v-67.943l45.737,0.012
	c4.35,15.093,18.275,26.168,34.749,26.168c19.941,0,36.165-16.224,36.165-36.165s-16.224-36.165-36.165-36.165
	c-16.471,0-30.396,11.073-34.747,26.162l-47.642-0.012c-7.012-28.391-32.687-49.509-63.213-49.509h-10.565
	c0.065-0.463,0.111-0.933,0.111-1.414l-0.013-38.379c15.089-4.351,26.162-18.275,26.162-34.747
	c0-19.941-16.224-36.165-36.165-36.165s-36.165,16.224-36.165,36.165c0,16.473,11.075,30.399,26.168,34.748l0.013,38.384
	c0,0.479,0.045,0.946,0.111,1.407H221.66l-0.01-16.535c15.089-4.352,26.16-18.275,26.16-34.746
	c0-19.941-16.223-36.164-36.165-36.164S175.48,43.014,175.48,62.955c0,16.474,11.076,30.4,26.169,34.749l0.01,16.533h-19.894
	c-35.905,0-65.117,29.211-65.117,65.116v28.729l-45.738,0.011c-4.351-15.089-18.276-26.162-34.747-26.162
	C16.223,181.931,0,198.154,0,218.095s16.223,36.165,36.165,36.165c16.473,0,30.399-11.075,34.748-26.167l45.737-0.011v75.211
	l-26.521,0.01c-4.351-15.089-18.275-26.161-34.747-26.161c-19.941,0-36.165,16.223-36.165,36.165s16.224,36.165,36.165,36.165
	c16.474,0,30.399-11.076,34.749-26.169l26.519-0.01v4.529c0,22.662,11.643,42.647,29.254,54.314
	c-0.151,0.691-0.236,1.408-0.236,2.145l0.014,53.28c-15.089,4.351-26.162,18.275-26.162,34.746
	c0,19.941,16.223,36.165,36.164,36.165s36.165-16.224,36.165-36.165c0-16.473-11.075-30.398-26.167-34.747l-0.012-46.637
	c5.15,1.314,10.543,2.017,16.097,2.017h64.225l0.007,28.764c-15.09,4.351-26.163,18.276-26.163,34.747
	c0,19.941,16.223,36.165,36.165,36.165c19.941,0,36.165-16.224,36.165-36.165c0-16.473-11.075-30.399-26.167-34.749l-0.007-28.762
	h64.244c3.985,0,7.88-0.379,11.669-1.068l0.012,45.689c-15.089,4.351-26.162,18.275-26.162,34.746
	c0,19.941,16.223,36.165,36.165,36.165c19.941,0,36.165-16.224,36.165-36.165c0-16.473-11.075-30.398-26.167-34.747l-0.014-52.867
	c12.045-6.734,21.736-17.181,27.525-29.784l51.661,0.013c4.35,15.092,18.275,26.167,34.749,26.167
	c19.941,0,36.165-16.223,36.165-36.165c0-19.941-16.224-36.164-36.165-36.164c-16.471,0-30.396,11.073-34.747,26.162l-46.131-0.012
	c0.253-2.329,0.393-4.692,0.393-7.087V271.69H395.352z M475.837,245.539c8.914,0,16.165,7.251,16.165,16.165
	s-7.251,16.165-16.165,16.165s-16.165-7.251-16.165-16.165C459.672,252.791,466.923,245.539,475.837,245.539z M293.6,39.698
	c0-8.913,7.251-16.165,16.165-16.165s16.165,7.252,16.165,16.165s-7.251,16.165-16.165,16.165
	C300.851,55.862,293.6,48.611,293.6,39.698z M195.481,62.955c0-8.913,7.252-16.164,16.165-16.164s16.165,7.251,16.165,16.164
	s-7.252,16.165-16.165,16.165C202.732,79.12,195.481,71.868,195.481,62.955z M36.165,234.26c-8.913,0-16.165-7.251-16.165-16.165
	c0-8.913,7.252-16.165,16.165-16.165c8.914,0,16.165,7.251,16.165,16.165S45.078,234.26,36.165,234.26z M55.383,329.472
	c-8.914,0-16.165-7.251-16.165-16.165c0-8.913,7.251-16.165,16.165-16.165s16.165,7.251,16.165,16.165
	C71.548,322.22,64.296,329.472,55.383,329.472z M171.849,472.306c0,8.914-7.251,16.165-16.165,16.165
	c-8.913,0-16.164-7.251-16.164-16.165c0-8.913,7.251-16.164,16.164-16.164C164.598,456.142,171.849,463.393,171.849,472.306z
	 M272.166,456.45c0,8.914-7.251,16.165-16.165,16.165c-8.913,0-16.165-7.251-16.165-16.165s7.251-16.165,16.165-16.165
	C264.914,440.285,272.166,447.536,272.166,456.45z M368.083,472.306c0,8.914-7.251,16.165-16.165,16.165
	c-8.913,0-16.165-7.251-16.165-16.165c0-8.913,7.251-16.164,16.165-16.164S368.083,463.393,368.083,472.306z M375.352,327.822
	c0,24.878-20.239,45.117-45.117,45.117H181.767c-24.877,0-45.117-20.239-45.117-45.117V179.353
	c0-24.877,20.239-45.116,45.117-45.116h148.468c24.877,0,45.117,20.239,45.117,45.116V327.822z M475.837,328.758
	c8.914,0,16.165,7.251,16.165,16.164s-7.251,16.165-16.165,16.165s-16.165-7.251-16.165-16.165
	C459.672,336.01,466.923,328.758,475.837,328.758z M475.837,157.596c8.914,0,16.165,7.251,16.165,16.165
	s-7.251,16.165-16.165,16.165s-16.165-7.252-16.165-16.165S466.923,157.596,475.837,157.596z"/>
<path d="M330.235,146.155H181.767c-18.306,0-33.199,14.893-33.199,33.198v148.469c0,18.306,14.893,33.199,33.199,33.199h148.468
	c18.306,0,33.199-14.893,33.199-33.199V179.353C363.434,161.047,348.541,146.155,330.235,146.155z M343.434,327.822
	c0,7.278-5.921,13.199-13.199,13.199H181.767c-7.278,0-13.199-5.921-13.199-13.199V179.353c0-7.277,5.921-13.198,13.199-13.198
	h148.468c7.278,0,13.199,5.921,13.199,13.198V327.822z"/>
<path d="M315.578,184.111h-56.691c-5.523,0-10,4.477-10,10v56.691c0,5.523,4.477,10,10,10h56.691c5.523,0,10-4.477,10-10v-56.691
	C325.578,188.588,321.101,184.111,315.578,184.111z M305.578,240.802h-36.691v-36.691h36.691V240.802z"/>
<path d="M314.737,287.317h-41.438c-5.523,0-10,4.477-10,10s4.477,10,10,10h41.438c5.523,0,10-4.477,10-10
	S320.26,287.317,314.737,287.317z"/>
<path d="M244.214,287.317h-0.475c-5.523,0-10,4.477-10,10s4.477,10,10,10h0.475c5.523,0,10-4.477,10-10
	S249.737,287.317,244.214,287.317z"/>
<g>
</g>
<g>
</g>
<g>
</g>
<g>
</g>
<g>
</g>
<g>
</g>
<g>
</g>
<g>
</g>
<g>
</g>
<g>
</g>
<g>
</g>
<g>
</g>
<g>
</g>
<g>
</g>
<g>
</g>
</svg>
